{
  "asset": {"version": "2.0", "generator": "Relay camera fixture"},
  "buffers": [{"byteLength": 66, "uri": "data:application/octet-stream;base64,"}],
  "bufferViews": [
    {"buffer": 0, "byteOffset": 0, "byteLength": 36, "target": 34962},
    {"buffer": 0, "byteOffset": 36, "byteLength": 24, "target": 34962},
    {"buffer": 0, "byteOffset": 60, "byteLength": 6, "target": 34963}
  ],
  "accessors": [
    {"bufferView": 0, "componentType": 5126, "count": 3, "type": "VEC3", "min": [-0.5, -0.5, 0], "max": [0.5, 0.5, 0]},
    {"bufferView": 1, "componentType": 5126, "count": 3, "type": "VEC2"},
    {"bufferView": 2, "componentType": 5123, "count": 3, "type": "SCALAR"}
  ],
  "meshes": [{"primitives": [{"attributes": {"POSITION": 0, "TEXCOORD_0": 1}, "indices": 2}]}],
  "cameras": [
    {"type": "perspective", "perspective": {"aspectRatio": 2, "yfov": 1.0471975511965976, "znear": 0.25, "zfar": 200}},
    {"type": "orthographic", "orthographic": {"xmag": 2, "ymag": 1, "znear": 0.1, "zfar": 100}}
  ],
  "nodes": [
    {"name": "CameraRig", "translation": [1, 2, 0], "children": [1, 2, 3]},
    {"name": "Triangle", "mesh": 0},
    {"name": "Perspective", "camera": 0, "translation": [0, 0, 5]},
    {"name": "Orthographic", "camera": 1}
  ],
  "scenes": [{"nodes": [0]}], "scene": 0
}
